<svg xmlns="http://www.w3.org/2000/svg" viewBox="0 0 1000 40" width="1000" height="40" role="img" aria-label="divider"><title>divider</title><style>.rot{transform-box:fill-box;transform-origin:center;animation:rot 10s linear infinite}@keyframes rot{to{transform:rotate(360deg)}}.gleam{animation:gleam 4s ease-in-out infinite}@keyframes gleam{0%{transform:translateX(0);opacity:0}10%{opacity:1}90%{opacity:1}100%{transform:translateX(900px);opacity:0}}</style><defs><linearGradient id="l" x1="0" x2="1"><stop offset="0" stop-color="#ff6ec7" stop-opacity="0"/><stop offset="1" stop-color="#ff6ec7"/></linearGradient><linearGradient id="r" x1="0" x2="1"><stop offset="0" stop-color="#00e5ff"/><stop offset="1" stop-color="#00e5ff" stop-opacity="0"/></linearGradient><radialGradient id="g"><stop offset="0" stop-color="#fff"/><stop offset="1" stop-color="#fff" stop-opacity="0"/></radialGradient></defs><rect x="40" y="19" width="420" height="2" rx="1" fill="url(#l)"/><rect x="540" y="19" width="420" height="2" rx="1" fill="url(#r)"/><path d="M466,20 l5,-5 l5,5 l-5,5 Z" fill="#ff6ec7"/><path d="M524,20 l5,-5 l5,5 l-5,5 Z" fill="#00e5ff"/><g transform="translate(500,20) scale(1.05)"><g class="rot"><path d="M0,0 C-5,-4 -7,-11 -3,-15 L0,-12 L3,-15 C7,-11 5,-4 0,0 Z" transform="rotate(0)" fill="#ff6ec7"/><path d="M0,0 C-5,-4 -7,-11 -3,-15 L0,-12 L3,-15 C7,-11 5,-4 0,0 Z" transform="rotate(72)" fill="#ff6ec7"/><path d="M0,0 C-5,-4 -7,-11 -3,-15 L0,-12 L3,-15 C7,-11 5,-4 0,0 Z" transform="rotate(144)" fill="#ff6ec7"/><path d="M0,0 C-5,-4 -7,-11 -3,-15 L0,-12 L3,-15 C7,-11 5,-4 0,0 Z" transform="rotate(216)" fill="#ff6ec7"/><path d="M0,0 C-5,-4 -7,-11 -3,-15 L0,-12 L3,-15 C7,-11 5,-4 0,0 Z" transform="rotate(288)" fill="#ff6ec7"/><circle r="2.6" fill="#ffd166"/></g></g><ellipse class="gleam" cx="50" cy="20" rx="26" ry="3" fill="url(#g)"/></svg>
