<svg xmlns="http://www.w3.org/2000/svg" viewBox="0 0 1000 262" width="1000" height="262" role="img" aria-label="Titles unlocked: Backend Swordsman, API Summoner, Cloud Walker, Speed Demon, Guild Member (WSO2), Polyglot Ninja"><title>Titles unlocked: Backend Swordsman, API Summoner, Cloud Walker, Speed Demon, Guild Member (WSO2), Polyglot Ninja</title><style>text{font-family:'Segoe UI','Helvetica Neue',Helvetica,Arial,sans-serif}.jp{font-family:'Hiragino Sans','Hiragino Kaku Gothic ProN','Yu Gothic','Noto Sans JP','Noto Sans CJK JP',Meiryo,sans-serif}.mono{font-family:ui-monospace,SFMono-Regular,'JetBrains Mono','Fira Code',Menlo,Consolas,'Liberation Mono',monospace}.pop{transform-box:fill-box;transform-origin:center;animation:pop .6s cubic-bezier(.3,1.6,.5,1) both}@keyframes pop{from{opacity:0;transform:scale(.3) rotate(-25deg)}}.rot{transform-box:fill-box;transform-origin:center;animation:rot 12s linear infinite}@keyframes rot{to{transform:rotate(360deg)}}.float{animation:float 4s ease-in-out infinite}@keyframes float{0%,100%{transform:translateY(0)}50%{transform:translateY(-5px)}}.shine{animation:shine 5s ease-in-out infinite}@keyframes shine{0%,55%{transform:translateX(-80px)}85%,100%{transform:translateX(80px)}}.fade{animation:fade .8s ease-out both}@keyframes fade{from{opacity:0}}</style><defs><clipPath id="card"><rect width="1000" height="262" rx="18"/></clipPath><linearGradient id="bg" x1="0" y1="0" x2="1" y2="1"><stop offset="0" stop-color="#0d0a24"/><stop offset="1" stop-color="#1a0b2e"/></linearGradient><linearGradient id="sheen" x1="0" x2="1"><stop offset="0" stop-color="#fff" stop-opacity="0"/><stop offset=".5" stop-color="#fff" stop-opacity=".45"/><stop offset="1" stop-color="#fff" stop-opacity="0"/></linearGradient><filter id="glow" x="-50%" y="-50%" width="200%" height="200%"><feGaussianBlur stdDeviation="3" result="b"/><feMerge><feMergeNode in="b"/><feMergeNode in="SourceGraphic"/></feMerge></filter><filter id="kglow" x="-50%" y="-50%" width="200%" height="200%"><feGaussianBlur stdDeviation="4" result="b"/><feMerge><feMergeNode in="b"/><feMergeNode in="SourceGraphic"/></feMerge></filter><clipPath id="h0"><polygon points="92.0,84.0 130.1,106.0 130.1,150.0 92.0,172.0 53.9,150.0 53.9,106.0"/></clipPath><clipPath id="h1"><polygon points="255.0,84.0 293.1,106.0 293.1,150.0 255.0,172.0 216.9,150.0 216.9,106.0"/></clipPath><clipPath id="h2"><polygon points="418.0,84.0 456.1,106.0 456.1,150.0 418.0,172.0 379.9,150.0 379.9,106.0"/></clipPath><clipPath id="h3"><polygon points="581.0,84.0 619.1,106.0 619.1,150.0 581.0,172.0 542.9,150.0 542.9,106.0"/></clipPath><clipPath id="h4"><polygon points="744.0,84.0 782.1,106.0 782.1,150.0 744.0,172.0 705.9,150.0 705.9,106.0"/></clipPath><clipPath id="h5"><polygon points="907.0,84.0 945.1,106.0 945.1,150.0 907.0,172.0 868.9,150.0 868.9,106.0"/></clipPath></defs><g clip-path="url(#card)"><rect width="1000" height="262" fill="url(#bg)"/><circle class="tw" cx="622" cy="195" r="1.5" fill="#fff" style="animation-duration:4.8s;animation-delay:-3.7s"/><circle class="tw" cx="919" cy="11" r="1.1" fill="#fff" style="animation-duration:4.8s;animation-delay:-3.2s"/><circle class="tw" cx="898" cy="33" r="1.1" fill="#fff" style="animation-duration:2.7s;animation-delay:-2.7s"/><circle class="tw" cx="573" cy="7" r="0.8" fill="#fff" style="animation-duration:2.8s;animation-delay:-4.6s"/><circle class="tw" cx="764" cy="45" r="1.5" fill="#fff" style="animation-duration:2.4s;animation-delay:-3.1s"/><circle class="tw" cx="130" cy="4" r="1.5" fill="#fff" style="animation-duration:2.6s;animation-delay:-1.1s"/><circle class="tw" cx="979" cy="229" r="0.8" fill="#fff" style="animation-duration:4.9s;animation-delay:-2.7s"/><circle class="tw" cx="676" cy="57" r="1.6" fill="#fff" style="animation-duration:4.1s;animation-delay:-4.8s"/><circle class="tw" cx="891" cy="81" r="0.9" fill="#fff" style="animation-duration:2.5s;animation-delay:-0.7s"/><circle class="tw" cx="69" cy="82" r="1.2" fill="#fff" style="animation-duration:2.0s;animation-delay:-3.4s"/><circle class="tw" cx="339" cy="84" r="1.5" fill="#fff" style="animation-duration:3.4s;animation-delay:-1.6s"/><circle class="tw" cx="481" cy="186" r="0.6" fill="#fff" style="animation-duration:4.9s;animation-delay:-0.1s"/><circle class="tw" cx="748" cy="222" r="0.5" fill="#fff" style="animation-duration:4.4s;animation-delay:-1.8s"/><circle class="tw" cx="578" cy="6" r="0.6" fill="#fff" style="animation-duration:2.5s;animation-delay:-4.8s"/><circle class="tw" cx="199" cy="199" r="1.6" fill="#fff" style="animation-duration:4.8s;animation-delay:-1.7s"/><circle class="tw" cx="356" cy="139" r="1.4" fill="#fff" style="animation-duration:2.3s;animation-delay:-3.7s"/><circle class="tw" cx="795" cy="226" r="0.5" fill="#fff" style="animation-duration:4.8s;animation-delay:-0.5s"/><circle class="tw" cx="342" cy="162" r="1.6" fill="#fff" style="animation-duration:3.0s;animation-delay:-4.6s"/><circle class="tw" cx="545" cy="85" r="0.9" fill="#fff" style="animation-duration:2.5s;animation-delay:-0.4s"/><circle class="tw" cx="152" cy="182" r="1.7" fill="#fff" style="animation-duration:2.5s;animation-delay:-0.2s"/><circle class="tw" cx="983" cy="142" r="1.0" fill="#fff" style="animation-duration:2.7s;animation-delay:-3.0s"/><circle class="tw" cx="824" cy="122" r="1.0" fill="#fff" style="animation-duration:2.2s;animation-delay:-4.6s"/><circle class="tw" cx="36" cy="131" r="1.5" fill="#fff" style="animation-duration:2.4s;animation-delay:-3.7s"/><circle class="tw" cx="946" cy="167" r="1.4" fill="#fff" style="animation-duration:2.3s;animation-delay:-2.2s"/><circle class="tw" cx="152" cy="222" r="0.9" fill="#fff" style="animation-duration:3.4s;animation-delay:-5.0s"/><circle class="tw" cx="849" cy="256" r="1.0" fill="#fff" style="animation-duration:3.5s;animation-delay:-3.6s"/><circle class="tw" cx="479" cy="79" r="1.0" fill="#fff" style="animation-duration:2.4s;animation-delay:-1.9s"/><circle class="tw" cx="984" cy="252" r="1.3" fill="#fff" style="animation-duration:3.5s;animation-delay:-1.7s"/><circle class="tw" cx="92" cy="74" r="1.4" fill="#fff" style="animation-duration:4.6s;animation-delay:-1.8s"/><circle class="tw" cx="784" cy="204" r="1.3" fill="#fff" style="animation-duration:4.0s;animation-delay:-3.8s"/><circle class="tw" cx="365" cy="186" r="0.8" fill="#fff" style="animation-duration:3.5s;animation-delay:-3.8s"/><circle class="tw" cx="689" cy="80" r="1.6" fill="#fff" style="animation-duration:3.9s;animation-delay:-2.9s"/><circle class="tw" cx="15" cy="145" r="0.8" fill="#fff" style="animation-duration:4.0s;animation-delay:-2.3s"/><circle class="tw" cx="814" cy="171" r="1.5" fill="#fff" style="animation-duration:3.0s;animation-delay:-3.2s"/><circle class="tw" cx="736" cy="218" r="0.9" fill="#fff" style="animation-duration:4.5s;animation-delay:-4.3s"/><circle class="tw" cx="687" cy="256" r="1.6" fill="#fff" style="animation-duration:3.6s;animation-delay:-2.6s"/><circle class="tw" cx="169" cy="220" r="1.6" fill="#fff" style="animation-duration:3.4s;animation-delay:-3.5s"/><circle class="tw" cx="718" cy="192" r="0.7" fill="#fff" style="animation-duration:4.3s;animation-delay:-2.9s"/><circle class="tw" cx="664" cy="113" r="1.2" fill="#fff" style="animation-duration:4.3s;animation-delay:-3.2s"/><circle class="tw" cx="719" cy="11" r="0.7" fill="#fff" style="animation-duration:3.3s;animation-delay:-3.3s"/><text x="34" y="40" font-size="13" font-weight="800" letter-spacing="3" fill="#ff6ec7">◆ TITLES UNLOCKED <tspan class="jp" fill="#a9a3cf" font-weight="400" letter-spacing="1">称号</tspan></text><rect x="846" y="25" width="120" height="22" rx="11" fill="#ffd166" fill-opacity=".12" stroke="#ffd166"/><text x="906" y="40" text-anchor="middle" font-size="11" font-weight="800" letter-spacing="1.5" fill="#ffd166" class="mono">6 / 6 ★</text><g class="pop" style="animation-delay:0.30s"><g class="float" style="animation-delay:0.0s"><g filter="url(#glow)"><polygon points="92.0,84.0 130.1,106.0 130.1,150.0 92.0,172.0 53.9,150.0 53.9,106.0" fill="#ffd166" fill-opacity=".1" stroke="#ffd166" stroke-width="2"/></g><polygon class="rot" style="animation-duration:10.0s" points="92.0,74.0 138.8,101.0 138.8,155.0 92.0,182.0 45.2,155.0 45.2,101.0" fill="none" stroke="#ffd166" stroke-opacity=".55" stroke-dasharray="3 7"/><text x="92" y="141" text-anchor="middle" class="jp" font-size="36" font-weight="800" fill="#fff" filter="url(#kglow)">剣</text><g clip-path="url(#h0)"><rect class="shine" style="animation-delay:0.0s" x="72" y="78" width="40" height="100" fill="url(#sheen)" transform="rotate(20 92 128)"/></g></g></g><g class="fade" style="animation-delay:0.60s"><text x="92" y="210" text-anchor="middle" font-size="14" font-weight="800" fill="#ffd166">Backend Swordsman</text><text x="92" y="229" text-anchor="middle" font-size="11" fill="#a9a3cf" class="mono">Java · Spring Boot</text></g><g class="pop" style="animation-delay:0.48s"><g class="float" style="animation-delay:-0.6s"><g filter="url(#glow)"><polygon points="255.0,84.0 293.1,106.0 293.1,150.0 255.0,172.0 216.9,150.0 216.9,106.0" fill="#ff6ec7" fill-opacity=".1" stroke="#ff6ec7" stroke-width="2"/></g><polygon class="rot" style="animation-duration:11.5s" points="255.0,74.0 301.8,101.0 301.8,155.0 255.0,182.0 208.2,155.0 208.2,101.0" fill="none" stroke="#ff6ec7" stroke-opacity=".55" stroke-dasharray="3 7"/><text x="255" y="141" text-anchor="middle" class="jp" font-size="36" font-weight="800" fill="#fff" filter="url(#kglow)">召</text><g clip-path="url(#h1)"><rect class="shine" style="animation-delay:0.4s" x="235" y="78" width="40" height="100" fill="url(#sheen)" transform="rotate(20 255 128)"/></g></g></g><g class="fade" style="animation-delay:0.78s"><text x="255" y="210" text-anchor="middle" font-size="14" font-weight="800" fill="#ff6ec7">API Summoner</text><text x="255" y="229" text-anchor="middle" font-size="11" fill="#a9a3cf" class="mono">REST · GraphQL</text></g><g class="pop" style="animation-delay:0.66s"><g class="float" style="animation-delay:-1.2s"><g filter="url(#glow)"><polygon points="418.0,84.0 456.1,106.0 456.1,150.0 418.0,172.0 379.9,150.0 379.9,106.0" fill="#00e5ff" fill-opacity=".1" stroke="#00e5ff" stroke-width="2"/></g><polygon class="rot" style="animation-duration:13.0s" points="418.0,74.0 464.8,101.0 464.8,155.0 418.0,182.0 371.2,155.0 371.2,101.0" fill="none" stroke="#00e5ff" stroke-opacity=".55" stroke-dasharray="3 7"/><text x="418" y="141" text-anchor="middle" class="jp" font-size="36" font-weight="800" fill="#fff" filter="url(#kglow)">雲</text><g clip-path="url(#h2)"><rect class="shine" style="animation-delay:0.8s" x="398" y="78" width="40" height="100" fill="url(#sheen)" transform="rotate(20 418 128)"/></g></g></g><g class="fade" style="animation-delay:0.96s"><text x="418" y="210" text-anchor="middle" font-size="14" font-weight="800" fill="#00e5ff">Cloud Walker</text><text x="418" y="229" text-anchor="middle" font-size="11" fill="#a9a3cf" class="mono">AWS · Docker · K8s</text></g><g class="pop" style="animation-delay:0.84s"><g class="float" style="animation-delay:-1.8s"><g filter="url(#glow)"><polygon points="581.0,84.0 619.1,106.0 619.1,150.0 581.0,172.0 542.9,150.0 542.9,106.0" fill="#b388ff" fill-opacity=".1" stroke="#b388ff" stroke-width="2"/></g><polygon class="rot" style="animation-duration:14.5s" points="581.0,74.0 627.8,101.0 627.8,155.0 581.0,182.0 534.2,155.0 534.2,101.0" fill="none" stroke="#b388ff" stroke-opacity=".55" stroke-dasharray="3 7"/><text x="581" y="141" text-anchor="middle" class="jp" font-size="36" font-weight="800" fill="#fff" filter="url(#kglow)">速</text><g clip-path="url(#h3)"><rect class="shine" style="animation-delay:1.2s" x="561" y="78" width="40" height="100" fill="url(#sheen)" transform="rotate(20 581 128)"/></g></g></g><g class="fade" style="animation-delay:1.14s"><text x="581" y="210" text-anchor="middle" font-size="14" font-weight="800" fill="#b388ff">Speed Demon</text><text x="581" y="229" text-anchor="middle" font-size="11" fill="#a9a3cf" class="mono">Go · concurrency</text></g><g class="pop" style="animation-delay:1.02s"><g class="float" style="animation-delay:-2.4s"><g filter="url(#glow)"><polygon points="744.0,84.0 782.1,106.0 782.1,150.0 744.0,172.0 705.9,150.0 705.9,106.0" fill="#ff7a1a" fill-opacity=".1" stroke="#ff7a1a" stroke-width="2"/></g><polygon class="rot" style="animation-duration:16.0s" points="744.0,74.0 790.8,101.0 790.8,155.0 744.0,182.0 697.2,155.0 697.2,101.0" fill="none" stroke="#ff7a1a" stroke-opacity=".55" stroke-dasharray="3 7"/><text x="744" y="141" text-anchor="middle" class="jp" font-size="36" font-weight="800" fill="#fff" filter="url(#kglow)">絆</text><g clip-path="url(#h4)"><rect class="shine" style="animation-delay:1.6s" x="724" y="78" width="40" height="100" fill="url(#sheen)" transform="rotate(20 744 128)"/></g></g></g><g class="fade" style="animation-delay:1.32s"><text x="744" y="210" text-anchor="middle" font-size="14" font-weight="800" fill="#ff7a1a">Guild Member</text><text x="744" y="229" text-anchor="middle" font-size="11" fill="#a9a3cf" class="mono">WSO2</text></g><g class="pop" style="animation-delay:1.20s"><g class="float" style="animation-delay:-3.0s"><g filter="url(#glow)"><polygon points="907.0,84.0 945.1,106.0 945.1,150.0 907.0,172.0 868.9,150.0 868.9,106.0" fill="#ff6ec7" fill-opacity=".1" stroke="#ff6ec7" stroke-width="2"/></g><polygon class="rot" style="animation-duration:17.5s" points="907.0,74.0 953.8,101.0 953.8,155.0 907.0,182.0 860.2,155.0 860.2,101.0" fill="none" stroke="#ff6ec7" stroke-opacity=".55" stroke-dasharray="3 7"/><text x="907" y="141" text-anchor="middle" class="jp" font-size="36" font-weight="800" fill="#fff" filter="url(#kglow)">忍</text><g clip-path="url(#h5)"><rect class="shine" style="animation-delay:2.0s" x="887" y="78" width="40" height="100" fill="url(#sheen)" transform="rotate(20 907 128)"/></g></g></g><g class="fade" style="animation-delay:1.50s"><text x="907" y="210" text-anchor="middle" font-size="14" font-weight="800" fill="#ff6ec7">Polyglot Ninja</text><text x="907" y="229" text-anchor="middle" font-size="11" fill="#a9a3cf" class="mono">Python · TS · Dart</text></g></g><rect x="1" y="1" width="998" height="260" rx="17" fill="none" stroke="#a855f7" stroke-opacity=".45"/><g fill="none" stroke="#ff6ec7" stroke-width="2" stroke-linecap="round" opacity=".85"><path d="M14,40 V14 H40"/><path d="M960,14 H986 V40"/><path d="M14,222 V248 H40"/><path d="M960,248 H986 V222"/></g></svg>
